{
    "accessors": {
        "accessor_33": {
            "bufferView": "bufferView_44",
            "byteOffset": 0,
            "byteStride": 0,
            "componentType": 5123,
            "count": 27,
            "type": "SCALAR"
        },
        "accessor_36": {
            "bufferView": "bufferView_44",
            "byteOffset": 54,
            "byteStride": 0,
            "componentType": 5123,
            "count": 18,
            "type": "SCALAR"
        },
        "accessor_38": {
            "bufferView": "bufferView_45",
            "byteOffset": 0,
            "byteStride": 12,
            "componentType": 5126,
            "count": 45,
            "max": [
                2.03125,
                5.5,
                5.34933
            ],
            "min": [
                -1.96875,
                0,
                0
            ],
            "type": "VEC3"
        },
        "accessor_40": {
            "bufferView": "bufferView_45",
            "byteOffset": 540,
            "byteStride": 12,
            "componentType": 5126,
            "count": 45,
            "max": [
                0.911447,
                0.891579,
                0.937596
            ],
            "min": [
                -0.911447,
                -0.891579,
                -0.739033
            ],
            "type": "VEC3"
        },
        "accessor_42": {
            "bufferView": "bufferView_45",
            "byteOffset": 1080,
            "byteStride": 8,
            "componentType": 5126,
            "count": 45,
            "max": [
                0.997338,
                1
            ],
            "min": [
                0,
                0.000971377
            ],
            "type": "VEC2"
        }
    },
    "animations": {},
    "asset": {
        "generator": "collada2gltf@cf6371beb0bdc18ba603378d5e40c966da53d385",
        "premultipliedAlpha": true,
        "profile": {
            "api": "WebGL",
            "version": "1.0.2"
        },
        "version": "1.0"
    },
    "bufferViews": {
        "bufferView_44": {
            "buffer": "UUID_073a881b-b419-47cc-8c03-dcf4982f61e1",
            "byteLength": 92,
            "byteOffset": 0,
            "target": 34963
        },
        "bufferView_45": {
            "buffer": "UUID_073a881b-b419-47cc-8c03-dcf4982f61e1",
            "byteLength": 1440,
            "byteOffset": 92,
            "target": 34962
        }
    },
    "buffers": {
        "UUID_073a881b-b419-47cc-8c03-dcf4982f61e1": {
            "byteLength": 1532,
            "type": "arraybuffer",
            "uri": "data:application/octet-stream;base64,"
        }
    },
    "images": {
        "textureAtlas_15422914_0_img": {
            "name": "textureAtlas_15422914_0_img",
            "uri": "data:image/jpeg;base64,"
        }
    },
    "materials": {
        "default_sh_0.10000000149011612_dc_r_1.0_g_1.0_b_1.0_sc_r_0.0_g_0.0_b_0_eff": {
            "name": "default_sh_0.10000000149011612_dc_r_1.0_g_1.0_b_1.0_sc_r_0.0_g_0.0_b_0_mat",
            "technique": "technique0",
            "values": {
                "diffuse": [
                    1,
                    1,
                    1,
                    1
                ],
                "emission": [
                    0,
                    0,
                    0,
                    1
                ]
            }
        },
        "textureAtlas_15422914_0_eff": {
            "name": "textureAtlas_15422914_0_mat",
            "technique": "technique1",
            "values": {
                "diffuse": "texture_textureAtlas_15422914_0_img",
                "emission": [
                    0,
                    0,
                    0,
                    1
                ]
            }
        }
    },
    "meshes": {
        "geometry0": {
            "name": "geometry0",
            "primitives": [
                {
                    "attributes": {
                        "NORMAL": "accessor_40",
                        "POSITION": "accessor_38",
                        "TEXCOORD_0": "accessor_42"
                    },
                    "indices": "accessor_33",
                    "material": "textureAtlas_15422914_0_eff",
                    "mode": 4
                },
                {
                    "attributes": {
                        "NORMAL": "accessor_40",
                        "POSITION": "accessor_38"
                    },
                    "indices": "accessor_36",
                    "material": "default_sh_0.10000000149011612_dc_r_1.0_g_1.0_b_1.0_sc_r_0.0_g_0.0_b_0_eff",
                    "mode": 4
                }
            ]
        }
    },
    "nodes": {
        "node_0": {
            "children": [],
            "matrix": [
                1,
                0,
                0,
                0,
                0,
                1,
                0,
                0,
                0,
                0,
                1,
                0,
                0,
                0,
                0,
                1
            ],
            "meshes": [
                "geometry0"
            ],
            "name": ""
        },
        "node_1": {
            "children": [
                "node_0"
            ],
            "matrix": [
                1,
                0,
                0,
                0,
                0,
                0,
                -1,
                0,
                0,
                1,
                0,
                0,
                0,
                0,
                0,
                1
            ],
            "name": "Y_UP_Transform"
        }
    },
    "programs": {
        "program_0": {
            "attributes": [
                "a_normal",
                "a_position"
            ],
            "fragmentShader": "UUID_073a881b-b419-47cc-8c03-dcf4982f61e10FS",
            "vertexShader": "UUID_073a881b-b419-47cc-8c03-dcf4982f61e10VS"
        },
        "program_1": {
            "attributes": [
                "a_normal",
                "a_position",
                "a_texcoord0"
            ],
            "fragmentShader": "UUID_073a881b-b419-47cc-8c03-dcf4982f61e11FS",
            "vertexShader": "UUID_073a881b-b419-47cc-8c03-dcf4982f61e11VS"
        }
    },
    "samplers": {
        "sampler_0": {
            "magFilter": 9729,
            "minFilter": 9729,
            "wrapS": 10497,
            "wrapT": 10497
        }
    },
    "scene": "defaultScene",
    "scenes": {
        "defaultScene": {
            "nodes": [
                "node_1"
            ]
        }
    },
    "shaders": {
        "UUID_073a881b-b419-47cc-8c03-dcf4982f61e10FS": {
            "type": 35632,
            "uri": "data:text/plain;base64,"
        },
        "UUID_073a881b-b419-47cc-8c03-dcf4982f61e10VS": {
            "type": 35633,
            "uri": "data:text/plain;base64,"
        },
        "UUID_073a881b-b419-47cc-8c03-dcf4982f61e11FS": {
            "type": 35632,
            "uri": "data:text/plain;base64,"
        },
        "UUID_073a881b-b419-47cc-8c03-dcf4982f61e11VS": {
            "type": 35633,
            "uri": "data:text/plain;base64,"
        }
    },
    "skins": {},
    "techniques": {
        "technique0": {
            "attributes": {
                "a_normal": "normal",
                "a_position": "position"
            },
            "parameters": {
                "diffuse": {
                    "type": 35666
                },
                "emission": {
                    "type": 35666
                },
                "modelViewMatrix": {
                    "semantic": "MODELVIEW",
                    "type": 35676
                },
                "normal": {
                    "semantic": "NORMAL",
                    "type": 35665
                },
                "normalMatrix": {
                    "semantic": "MODELVIEWINVERSETRANSPOSE",
                    "type": 35675
                },
                "position": {
                    "semantic": "POSITION",
                    "type": 35665
                },
                "projectionMatrix": {
                    "semantic": "PROJECTION",
                    "type": 35676
                }
            },
            "program": "program_0",
            "states": {
                "enable": [
                    2929
                ]
            },
            "uniforms": {
                "u_diffuse": "diffuse",
                "u_emission": "emission",
                "u_modelViewMatrix": "modelViewMatrix",
                "u_normalMatrix": "normalMatrix",
                "u_projectionMatrix": "projectionMatrix"
            }
        },
        "technique1": {
            "attributes": {
                "a_normal": "normal",
                "a_position": "position",
                "a_texcoord0": "texcoord0"
            },
            "parameters": {
                "diffuse": {
                    "type": 35678
                },
                "emission": {
                    "type": 35666
                },
                "modelViewMatrix": {
                    "semantic": "MODELVIEW",
                    "type": 35676
                },
                "normal": {
                    "semantic": "NORMAL",
                    "type": 35665
                },
                "normalMatrix": {
                    "semantic": "MODELVIEWINVERSETRANSPOSE",
                    "type": 35675
                },
                "position": {
                    "semantic": "POSITION",
                    "type": 35665
                },
                "projectionMatrix": {
                    "semantic": "PROJECTION",
                    "type": 35676
                },
                "texcoord0": {
                    "semantic": "TEXCOORD_0",
                    "type": 35664
                }
            },
            "program": "program_1",
            "states": {
                "enable": [
                    2929
                ]
            },
            "uniforms": {
                "u_diffuse": "diffuse",
                "u_emission": "emission",
                "u_modelViewMatrix": "modelViewMatrix",
                "u_normalMatrix": "normalMatrix",
                "u_projectionMatrix": "projectionMatrix"
            }
        }
    },
    "textures": {
        "texture_textureAtlas_15422914_0_img": {
            "format": 6408,
            "internalFormat": 6408,
            "sampler": "sampler_0",
            "source": "textureAtlas_15422914_0_img",
            "target": 3553,
            "type": 5121
        }
    }
}