{
    "accessors": {
        "accessor_101": {
            "bufferView": "bufferView_109",
            "byteOffset": 4368,
            "byteStride": 0,
            "componentType": 5123,
            "count": 633,
            "type": "SCALAR"
        },
        "accessor_103": {
            "bufferView": "bufferView_110",
            "byteOffset": 0,
            "byteStride": 12,
            "componentType": 5126,
            "count": 2815,
            "max": [
                8.28125,
                62,
                54.4889
            ],
            "min": [
                -32.0938,
                -1.5,
                0
            ],
            "type": "VEC3"
        },
        "accessor_105": {
            "bufferView": "bufferView_110",
            "byteOffset": 33780,
            "byteStride": 12,
            "componentType": 5126,
            "count": 2815,
            "max": [
                1,
                1,
                1
            ],
            "min": [
                -1,
                -1,
                -1
            ],
            "type": "VEC3"
        },
        "accessor_107": {
            "bufferView": "bufferView_110",
            "byteOffset": 67560,
            "byteStride": 8,
            "componentType": 5126,
            "count": 2815,
            "max": [
                0.99996,
                1
            ],
            "min": [
                0,
                6.21676e-005
            ],
            "type": "VEC2"
        },
        "accessor_89": {
            "bufferView": "bufferView_109",
            "byteOffset": 0,
            "byteStride": 0,
            "componentType": 5123,
            "count": 528,
            "type": "SCALAR"
        },
        "accessor_92": {
            "bufferView": "bufferView_109",
            "byteOffset": 1056,
            "byteStride": 0,
            "componentType": 5123,
            "count": 243,
            "type": "SCALAR"
        },
        "accessor_95": {
            "bufferView": "bufferView_109",
            "byteOffset": 1542,
            "byteStride": 0,
            "componentType": 5123,
            "count": 951,
            "type": "SCALAR"
        },
        "accessor_98": {
            "bufferView": "bufferView_109",
            "byteOffset": 3444,
            "byteStride": 0,
            "componentType": 5123,
            "count": 462,
            "type": "SCALAR"
        }
    },
    "animations": {},
    "asset": {
        "generator": "collada2gltf@cf6371beb0bdc18ba603378d5e40c966da53d385",
        "premultipliedAlpha": true,
        "profile": {
            "api": "WebGL",
            "version": "1.0.2"
        },
        "version": "1.0"
    },
    "bufferViews": {
        "bufferView_109": {
            "buffer": "UUID_b34aaa79-dfab-41cd-be2e-064f5b7f4f45",
            "byteLength": 5636,
            "byteOffset": 0,
            "target": 34963
        },
        "bufferView_110": {
            "buffer": "UUID_b34aaa79-dfab-41cd-be2e-064f5b7f4f45",
            "byteLength": 90080,
            "byteOffset": 5636,
            "target": 34962
        }
    },
    "buffers": {
        "UUID_b34aaa79-dfab-41cd-be2e-064f5b7f4f45": {
            "byteLength": 95716,
            "type": "arraybuffer",
            "uri": "data:application/octet-stream;base64,"
        }
    },
    "images": {
        "textureAtlas_9064717_0_img": {
            "name": "textureAtlas_9064717_0_img",
            "uri": "data:image/jpeg;base64,"
        },
        "textureAtlas_9064717_1_img": {
            "name": "textureAtlas_9064717_1_img",
            "uri": "data:image/jpeg;base64,"
        },
        "textureAtlas_9064717_2_img": {
            "name": "textureAtlas_9064717_2_img",
            "uri": "data:image/jpeg;base64,"
        },
        "textureAtlas_9064717_3_img": {
            "name": "textureAtlas_9064717_3_img",
            "uri": "data:image/jpeg;base64,"
        },
        "textureAtlas_9064717_4_img": {
            "name": "textureAtlas_9064717_4_img",
            "uri": "data:image/jpeg;base64,"
        }
    },
    "materials": {
        "textureAtlas_9064717_0_eff": {
            "name": "textureAtlas_9064717_0_mat",
            "technique": "technique0",
            "values": {
                "diffuse": "texture_textureAtlas_9064717_0_img",
                "emission": [
                    0,
                    0,
                    0,
                    1
                ]
            }
        },
        "textureAtlas_9064717_1_eff": {
            "name": "textureAtlas_9064717_1_mat",
            "technique": "technique0",
            "values": {
                "diffuse": "texture_textureAtlas_9064717_1_img",
                "emission": [
                    0,
                    0,
                    0,
                    1
                ]
            }
        },
        "textureAtlas_9064717_2_eff": {
            "name": "textureAtlas_9064717_2_mat",
            "technique": "technique0",
            "values": {
                "diffuse": "texture_textureAtlas_9064717_2_img",
                "emission": [
                    0,
                    0,
                    0,
                    1
                ]
            }
        },
        "textureAtlas_9064717_3_eff": {
            "name": "textureAtlas_9064717_3_mat",
            "technique": "technique0",
            "values": {
                "diffuse": "texture_textureAtlas_9064717_3_img",
                "emission": [
                    0,
                    0,
                    0,
                    1
                ]
            }
        },
        "textureAtlas_9064717_4_eff": {
            "name": "textureAtlas_9064717_4_mat",
            "technique": "technique0",
            "values": {
                "diffuse": "texture_textureAtlas_9064717_4_img",
                "emission": [
                    0,
                    0,
                    0,
                    1
                ]
            }
        }
    },
    "meshes": {
        "geometry0": {
            "name": "geometry0",
            "primitives": [
                {
                    "attributes": {
                        "NORMAL": "accessor_105",
                        "POSITION": "accessor_103",
                        "TEXCOORD_0": "accessor_107"
                    },
                    "indices": "accessor_89",
                    "material": "textureAtlas_9064717_4_eff",
                    "mode": 4
                },
                {
                    "attributes": {
                        "NORMAL": "accessor_105",
                        "POSITION": "accessor_103",
                        "TEXCOORD_0": "accessor_107"
                    },
                    "indices": "accessor_92",
                    "material": "textureAtlas_9064717_1_eff",
                    "mode": 4
                },
                {
                    "attributes": {
                        "NORMAL": "accessor_105",
                        "POSITION": "accessor_103",
                        "TEXCOORD_0": "accessor_107"
                    },
                    "indices": "accessor_95",
                    "material": "textureAtlas_9064717_3_eff",
                    "mode": 4
                },
                {
                    "attributes": {
                        "NORMAL": "accessor_105",
                        "POSITION": "accessor_103",
                        "TEXCOORD_0": "accessor_107"
                    },
                    "indices": "accessor_98",
                    "material": "textureAtlas_9064717_2_eff",
                    "mode": 4
                },
                {
                    "attributes": {
                        "NORMAL": "accessor_105",
                        "POSITION": "accessor_103",
                        "TEXCOORD_0": "accessor_107"
                    },
                    "indices": "accessor_101",
                    "material": "textureAtlas_9064717_0_eff",
                    "mode": 4
                }
            ]
        }
    },
    "nodes": {
        "node_0": {
            "children": [],
            "matrix": [
                1,
                0,
                0,
                0,
                0,
                1,
                0,
                0,
                0,
                0,
                1,
                0,
                0,
                0,
                0,
                1
            ],
            "meshes": [
                "geometry0"
            ],
            "name": ""
        },
        "node_1": {
            "children": [
                "node_0"
            ],
            "matrix": [
                1,
                0,
                0,
                0,
                0,
                0,
                -1,
                0,
                0,
                1,
                0,
                0,
                0,
                0,
                0,
                1
            ],
            "name": "Y_UP_Transform"
        }
    },
    "programs": {
        "program_0": {
            "attributes": [
                "a_normal",
                "a_position",
                "a_texcoord0"
            ],
            "fragmentShader": "UUID_b34aaa79-dfab-41cd-be2e-064f5b7f4f450FS",
            "vertexShader": "UUID_b34aaa79-dfab-41cd-be2e-064f5b7f4f450VS"
        }
    },
    "samplers": {
        "sampler_0": {
            "magFilter": 9729,
            "minFilter": 9729,
            "wrapS": 10497,
            "wrapT": 10497
        }
    },
    "scene": "defaultScene",
    "scenes": {
        "defaultScene": {
            "nodes": [
                "node_1"
            ]
        }
    },
    "shaders": {
        "UUID_b34aaa79-dfab-41cd-be2e-064f5b7f4f450FS": {
            "type": 35632,
            "uri": "data:text/plain;base64,"
        },
        "UUID_b34aaa79-dfab-41cd-be2e-064f5b7f4f450VS": {
            "type": 35633,
            "uri": "data:text/plain;base64,"
        }
    },
    "skins": {},
    "techniques": {
        "technique0": {
            "attributes": {
                "a_normal": "normal",
                "a_position": "position",
                "a_texcoord0": "texcoord0"
            },
            "parameters": {
                "diffuse": {
                    "type": 35678
                },
                "emission": {
                    "type": 35666
                },
                "modelViewMatrix": {
                    "semantic": "MODELVIEW",
                    "type": 35676
                },
                "normal": {
                    "semantic": "NORMAL",
                    "type": 35665
                },
                "normalMatrix": {
                    "semantic": "MODELVIEWINVERSETRANSPOSE",
                    "type": 35675
                },
                "position": {
                    "semantic": "POSITION",
                    "type": 35665
                },
                "projectionMatrix": {
                    "semantic": "PROJECTION",
                    "type": 35676
                },
                "texcoord0": {
                    "semantic": "TEXCOORD_0",
                    "type": 35664
                }
            },
            "program": "program_0",
            "states": {
                "enable": [
                    2929
                ]
            },
            "uniforms": {
                "u_diffuse": "diffuse",
                "u_emission": "emission",
                "u_modelViewMatrix": "modelViewMatrix",
                "u_normalMatrix": "normalMatrix",
                "u_projectionMatrix": "projectionMatrix"
            }
        }
    },
    "textures": {
        "texture_textureAtlas_9064717_0_img": {
            "format": 6408,
            "internalFormat": 6408,
            "sampler": "sampler_0",
            "source": "textureAtlas_9064717_0_img",
            "target": 3553,
            "type": 5121
        },
        "texture_textureAtlas_9064717_1_img": {
            "format": 6408,
            "internalFormat": 6408,
            "sampler": "sampler_0",
            "source": "textureAtlas_9064717_1_img",
            "target": 3553,
            "type": 5121
        },
        "texture_textureAtlas_9064717_2_img": {
            "format": 6408,
            "internalFormat": 6408,
            "sampler": "sampler_0",
            "source": "textureAtlas_9064717_2_img",
            "target": 3553,
            "type": 5121
        },
        "texture_textureAtlas_9064717_3_img": {
            "format": 6408,
            "internalFormat": 6408,
            "sampler": "sampler_0",
            "source": "textureAtlas_9064717_3_img",
            "target": 3553,
            "type": 5121
        },
        "texture_textureAtlas_9064717_4_img": {
            "format": 6408,
            "internalFormat": 6408,
            "sampler": "sampler_0",
            "source": "textureAtlas_9064717_4_img",
            "target": 3553,
            "type": 5121
        }
    }
}