{
    "accessors": {
        "accessor_67": {
            "bufferView": "bufferView_84",
            "byteOffset": 0,
            "byteStride": 0,
            "componentType": 5123,
            "count": 219,
            "type": "SCALAR"
        },
        "accessor_70": {
            "bufferView": "bufferView_84",
            "byteOffset": 438,
            "byteStride": 0,
            "componentType": 5123,
            "count": 126,
            "type": "SCALAR"
        },
        "accessor_73": {
            "bufferView": "bufferView_84",
            "byteOffset": 690,
            "byteStride": 0,
            "componentType": 5123,
            "count": 120,
            "type": "SCALAR"
        },
        "accessor_76": {
            "bufferView": "bufferView_84",
            "byteOffset": 930,
            "byteStride": 0,
            "componentType": 5123,
            "count": 45,
            "type": "SCALAR"
        },
        "accessor_78": {
            "bufferView": "bufferView_85",
            "byteOffset": 0,
            "byteStride": 12,
            "componentType": 5126,
            "count": 256,
            "max": [
                3.21119,
                21.9888,
                56.46
            ],
            "min": [
                -26.3979,
                -23.8257,
                0
            ],
            "type": "VEC3"
        },
        "accessor_80": {
            "bufferView": "bufferView_85",
            "byteOffset": 3072,
            "byteStride": 12,
            "componentType": 5126,
            "count": 256,
            "max": [
                1,
                0.997,
                1
            ],
            "min": [
                -0.999786,
                -0.996985,
                -1
            ],
            "type": "VEC3"
        },
        "accessor_82": {
            "bufferView": "bufferView_85",
            "byteOffset": 6144,
            "byteStride": 8,
            "componentType": 5126,
            "count": 256,
            "max": [
                0.999627,
                1
            ],
            "min": [
                0,
                5.66244e-006
            ],
            "type": "VEC2"
        }
    },
    "animations": {},
    "asset": {
        "generator": "collada2gltf@cf6371beb0bdc18ba603378d5e40c966da53d385",
        "premultipliedAlpha": true,
        "profile": {
            "api": "WebGL",
            "version": "1.0.2"
        },
        "version": "1.0"
    },
    "bufferViews": {
        "bufferView_84": {
            "buffer": "BLDG_0003000800468638",
            "byteLength": 1020,
            "byteOffset": 0,
            "target": 34963
        },
        "bufferView_85": {
            "buffer": "BLDG_0003000800468638",
            "byteLength": 8192,
            "byteOffset": 1020,
            "target": 34962
        }
    },
    "buffers": {
        "BLDG_0003000800468638": {
            "byteLength": 9212,
            "type": "arraybuffer",
            "uri": "data:application/octet-stream;base64,"
        }
    },
    "images": {
        "textureAtlas_17548055_0_img": {
            "name": "textureAtlas_17548055_0_img",
            "uri": "data:image/jpeg;base64,"
        },
        "textureAtlas_17548055_1_img": {
            "name": "textureAtlas_17548055_1_img",
            "uri": "data:image/jpeg;base64,"
        },
        "textureAtlas_17548055_2_img": {
            "name": "textureAtlas_17548055_2_img",
            "uri": "data:image/jpeg;base64,"
        }
    },
    "materials": {
        "default_ai_0.2_sh_0.2_tr_0.0_dc_r_0.8_g_0.8_b_0.8_sc_r_1.0_g_1.0_b_1.0_ec_r_0.0_g_0.0_b_0_eff": {
            "name": "default_ai_0.2_sh_0.2_tr_0.0_dc_r_0.8_g_0.8_b_0.8_sc_r_1.0_g_1.0_b_1.0_ec_r_0.0_g_0.0_b_0_mat",
            "technique": "technique0",
            "values": {
                "diffuse": [
                    0.8,
                    0.8,
                    0.8,
                    1
                ],
                "emission": [
                    0,
                    0,
                    0,
                    1
                ]
            }
        },
        "textureAtlas_17548055_0_eff": {
            "name": "textureAtlas_17548055_0_mat",
            "technique": "technique1",
            "values": {
                "diffuse": "texture_textureAtlas_17548055_0_img",
                "emission": [
                    0,
                    0,
                    0,
                    1
                ]
            }
        },
        "textureAtlas_17548055_1_eff": {
            "name": "textureAtlas_17548055_1_mat",
            "technique": "technique1",
            "values": {
                "diffuse": "texture_textureAtlas_17548055_1_img",
                "emission": [
                    0,
                    0,
                    0,
                    1
                ]
            }
        },
        "textureAtlas_17548055_2_eff": {
            "name": "textureAtlas_17548055_2_mat",
            "technique": "technique1",
            "values": {
                "diffuse": "texture_textureAtlas_17548055_2_img",
                "emission": [
                    0,
                    0,
                    0,
                    1
                ]
            }
        }
    },
    "meshes": {
        "geometry0": {
            "name": "geometry0",
            "primitives": [
                {
                    "attributes": {
                        "NORMAL": "accessor_80",
                        "POSITION": "accessor_78",
                        "TEXCOORD_0": "accessor_82"
                    },
                    "indices": "accessor_67",
                    "material": "textureAtlas_17548055_1_eff",
                    "mode": 4
                },
                {
                    "attributes": {
                        "NORMAL": "accessor_80",
                        "POSITION": "accessor_78",
                        "TEXCOORD_0": "accessor_82"
                    },
                    "indices": "accessor_70",
                    "material": "textureAtlas_17548055_2_eff",
                    "mode": 4
                },
                {
                    "attributes": {
                        "NORMAL": "accessor_80",
                        "POSITION": "accessor_78",
                        "TEXCOORD_0": "accessor_82"
                    },
                    "indices": "accessor_73",
                    "material": "textureAtlas_17548055_0_eff",
                    "mode": 4
                },
                {
                    "attributes": {
                        "NORMAL": "accessor_80",
                        "POSITION": "accessor_78"
                    },
                    "indices": "accessor_76",
                    "material": "default_ai_0.2_sh_0.2_tr_0.0_dc_r_0.8_g_0.8_b_0.8_sc_r_1.0_g_1.0_b_1.0_ec_r_0.0_g_0.0_b_0_eff",
                    "mode": 4
                }
            ]
        }
    },
    "nodes": {
        "node_0": {
            "children": [],
            "matrix": [
                1,
                0,
                0,
                0,
                0,
                1,
                0,
                0,
                0,
                0,
                1,
                0,
                0,
                0,
                0,
                1
            ],
            "meshes": [
                "geometry0"
            ],
            "name": ""
        },
        "node_1": {
            "children": [
                "node_0"
            ],
            "matrix": [
                1,
                0,
                0,
                0,
                0,
                0,
                -1,
                0,
                0,
                1,
                0,
                0,
                0,
                0,
                0,
                1
            ],
            "name": "Y_UP_Transform"
        }
    },
    "programs": {
        "program_0": {
            "attributes": [
                "a_normal",
                "a_position"
            ],
            "fragmentShader": "BLDG_00030008004686380FS",
            "vertexShader": "BLDG_00030008004686380VS"
        },
        "program_1": {
            "attributes": [
                "a_normal",
                "a_position",
                "a_texcoord0"
            ],
            "fragmentShader": "BLDG_00030008004686381FS",
            "vertexShader": "BLDG_00030008004686381VS"
        }
    },
    "samplers": {
        "sampler_0": {
            "magFilter": 9729,
            "minFilter": 9729,
            "wrapS": 10497,
            "wrapT": 10497
        }
    },
    "scene": "defaultScene",
    "scenes": {
        "defaultScene": {
            "nodes": [
                "node_1"
            ]
        }
    },
    "shaders": {
        "BLDG_00030008004686380FS": {
            "type": 35632,
            "uri": "data:text/plain;base64,"
        },
        "BLDG_00030008004686380VS": {
            "type": 35633,
            "uri": "data:text/plain;base64,"
        },
        "BLDG_00030008004686381FS": {
            "type": 35632,
            "uri": "data:text/plain;base64,"
        },
        "BLDG_00030008004686381VS": {
            "type": 35633,
            "uri": "data:text/plain;base64,"
        }
    },
    "skins": {},
    "techniques": {
        "technique0": {
            "attributes": {
                "a_normal": "normal",
                "a_position": "position"
            },
            "parameters": {
                "diffuse": {
                    "type": 35666
                },
                "emission": {
                    "type": 35666
                },
                "modelViewMatrix": {
                    "semantic": "MODELVIEW",
                    "type": 35676
                },
                "normal": {
                    "semantic": "NORMAL",
                    "type": 35665
                },
                "normalMatrix": {
                    "semantic": "MODELVIEWINVERSETRANSPOSE",
                    "type": 35675
                },
                "position": {
                    "semantic": "POSITION",
                    "type": 35665
                },
                "projectionMatrix": {
                    "semantic": "PROJECTION",
                    "type": 35676
                }
            },
            "program": "program_0",
            "states": {
                "enable": [
                    2929
                ]
            },
            "uniforms": {
                "u_diffuse": "diffuse",
                "u_emission": "emission",
                "u_modelViewMatrix": "modelViewMatrix",
                "u_normalMatrix": "normalMatrix",
                "u_projectionMatrix": "projectionMatrix"
            }
        },
        "technique1": {
            "attributes": {
                "a_normal": "normal",
                "a_position": "position",
                "a_texcoord0": "texcoord0"
            },
            "parameters": {
                "diffuse": {
                    "type": 35678
                },
                "emission": {
                    "type": 35666
                },
                "modelViewMatrix": {
                    "semantic": "MODELVIEW",
                    "type": 35676
                },
                "normal": {
                    "semantic": "NORMAL",
                    "type": 35665
                },
                "normalMatrix": {
                    "semantic": "MODELVIEWINVERSETRANSPOSE",
                    "type": 35675
                },
                "position": {
                    "semantic": "POSITION",
                    "type": 35665
                },
                "projectionMatrix": {
                    "semantic": "PROJECTION",
                    "type": 35676
                },
                "texcoord0": {
                    "semantic": "TEXCOORD_0",
                    "type": 35664
                }
            },
            "program": "program_1",
            "states": {
                "enable": [
                    2929
                ]
            },
            "uniforms": {
                "u_diffuse": "diffuse",
                "u_emission": "emission",
                "u_modelViewMatrix": "modelViewMatrix",
                "u_normalMatrix": "normalMatrix",
                "u_projectionMatrix": "projectionMatrix"
            }
        }
    },
    "textures": {
        "texture_textureAtlas_17548055_0_img": {
            "format": 6408,
            "internalFormat": 6408,
            "sampler": "sampler_0",
            "source": "textureAtlas_17548055_0_img",
            "target": 3553,
            "type": 5121
        },
        "texture_textureAtlas_17548055_1_img": {
            "format": 6408,
            "internalFormat": 6408,
            "sampler": "sampler_0",
            "source": "textureAtlas_17548055_1_img",
            "target": 3553,
            "type": 5121
        },
        "texture_textureAtlas_17548055_2_img": {
            "format": 6408,
            "internalFormat": 6408,
            "sampler": "sampler_0",
            "source": "textureAtlas_17548055_2_img",
            "target": 3553,
            "type": 5121
        }
    }
}