{
    "accessors": {
        "accessor_152": {
            "bufferView": "bufferView_184",
            "byteOffset": 0,
            "byteStride": 0,
            "componentType": 5123,
            "count": 81,
            "type": "SCALAR"
        },
        "accessor_155": {
            "bufferView": "bufferView_184",
            "byteOffset": 162,
            "byteStride": 0,
            "componentType": 5123,
            "count": 168,
            "type": "SCALAR"
        },
        "accessor_158": {
            "bufferView": "bufferView_184",
            "byteOffset": 498,
            "byteStride": 0,
            "componentType": 5123,
            "count": 222,
            "type": "SCALAR"
        },
        "accessor_161": {
            "bufferView": "bufferView_184",
            "byteOffset": 942,
            "byteStride": 0,
            "componentType": 5123,
            "count": 192,
            "type": "SCALAR"
        },
        "accessor_164": {
            "bufferView": "bufferView_184",
            "byteOffset": 1326,
            "byteStride": 0,
            "componentType": 5123,
            "count": 18,
            "type": "SCALAR"
        },
        "accessor_167": {
            "bufferView": "bufferView_184",
            "byteOffset": 1362,
            "byteStride": 0,
            "componentType": 5123,
            "count": 84,
            "type": "SCALAR"
        },
        "accessor_170": {
            "bufferView": "bufferView_184",
            "byteOffset": 1530,
            "byteStride": 0,
            "componentType": 5123,
            "count": 99,
            "type": "SCALAR"
        },
        "accessor_173": {
            "bufferView": "bufferView_184",
            "byteOffset": 1728,
            "byteStride": 0,
            "componentType": 5123,
            "count": 162,
            "type": "SCALAR"
        },
        "accessor_176": {
            "bufferView": "bufferView_184",
            "byteOffset": 2052,
            "byteStride": 0,
            "componentType": 5123,
            "count": 306,
            "type": "SCALAR"
        },
        "accessor_178": {
            "bufferView": "bufferView_185",
            "byteOffset": 0,
            "byteStride": 12,
            "componentType": 5126,
            "count": 720,
            "max": [
                2.40883,
                102.928,
                26.4569
            ],
            "min": [
                -56.5038,
                -0.763676,
                0
            ],
            "type": "VEC3"
        },
        "accessor_180": {
            "bufferView": "bufferView_185",
            "byteOffset": 8640,
            "byteStride": 12,
            "componentType": 5126,
            "count": 720,
            "max": [
                0.999986,
                0.999861,
                1
            ],
            "min": [
                -0.998782,
                -0.999861,
                -1
            ],
            "type": "VEC3"
        },
        "accessor_182": {
            "bufferView": "bufferView_185",
            "byteOffset": 17280,
            "byteStride": 8,
            "componentType": 5126,
            "count": 720,
            "max": [
                0.99982,
                1
            ],
            "min": [
                0,
                3.26037e-005
            ],
            "type": "VEC2"
        }
    },
    "animations": {},
    "asset": {
        "generator": "collada2gltf@cf6371beb0bdc18ba603378d5e40c966da53d385",
        "premultipliedAlpha": true,
        "profile": {
            "api": "WebGL",
            "version": "1.0.2"
        },
        "version": "1.0"
    },
    "bufferViews": {
        "bufferView_184": {
            "buffer": "BLDG_0003000b002c70b6",
            "byteLength": 2664,
            "byteOffset": 0,
            "target": 34963
        },
        "bufferView_185": {
            "buffer": "BLDG_0003000b002c70b6",
            "byteLength": 23040,
            "byteOffset": 2664,
            "target": 34962
        }
    },
    "buffers": {
        "BLDG_0003000b002c70b6": {
            "byteLength": 25704,
            "type": "arraybuffer",
            "uri": "data:application/octet-stream;base64,"
        }
    },
    "images": {
        "textureAtlas_20955064_0_img": {
            "name": "textureAtlas_20955064_0_img",
            "uri": "data:image/jpeg;base64,"
        },
        "textureAtlas_20955064_1_img": {
            "name": "textureAtlas_20955064_1_img",
            "uri": "data:image/jpeg;base64,"
        },
        "textureAtlas_20955064_2_img": {
            "name": "textureAtlas_20955064_2_img",
            "uri": "data:image/jpeg;base64,"
        },
        "textureAtlas_20955064_3_img": {
            "name": "textureAtlas_20955064_3_img",
            "uri": "data:image/jpeg;base64,"
        },
        "textureAtlas_20955064_4_img": {
            "name": "textureAtlas_20955064_4_img",
            "uri": "data:image/jpeg;base64,"
        },
        "textureAtlas_20955064_5_img": {
            "name": "textureAtlas_20955064_5_img",
            "uri": "data:image/jpeg;base64,"
        },
        "textureAtlas_20955064_6_img": {
            "name": "textureAtlas_20955064_6_img",
            "uri": "data:image/jpeg;base64,"
        },
        "textureAtlas_20955064_7_img": {
            "name": "textureAtlas_20955064_7_img",
            "uri": "data:image/jpeg;base64,"
        }
    },
    "materials": {
        "default_ai_0.2_sh_0.2_tr_0.0_dc_r_0.8_g_0.8_b_0.8_sc_r_1.0_g_1.0_b_1.0_ec_r_0.0_g_0.0_b_0_eff": {
            "name": "default_ai_0.2_sh_0.2_tr_0.0_dc_r_0.8_g_0.8_b_0.8_sc_r_1.0_g_1.0_b_1.0_ec_r_0.0_g_0.0_b_0_mat",
            "technique": "technique0",
            "values": {
                "diffuse": [
                    0.8,
                    0.8,
                    0.8,
                    1
                ],
                "emission": [
                    0,
                    0,
                    0,
                    1
                ]
            }
        },
        "textureAtlas_20955064_0_eff": {
            "name": "textureAtlas_20955064_0_mat",
            "technique": "technique1",
            "values": {
                "diffuse": "texture_textureAtlas_20955064_0_img",
                "emission": [
                    0,
                    0,
                    0,
                    1
                ]
            }
        },
        "textureAtlas_20955064_1_eff": {
            "name": "textureAtlas_20955064_1_mat",
            "technique": "technique1",
            "values": {
                "diffuse": "texture_textureAtlas_20955064_1_img",
                "emission": [
                    0,
                    0,
                    0,
                    1
                ]
            }
        },
        "textureAtlas_20955064_2_eff": {
            "name": "textureAtlas_20955064_2_mat",
            "technique": "technique1",
            "values": {
                "diffuse": "texture_textureAtlas_20955064_2_img",
                "emission": [
                    0,
                    0,
                    0,
                    1
                ]
            }
        },
        "textureAtlas_20955064_3_eff": {
            "name": "textureAtlas_20955064_3_mat",
            "technique": "technique1",
            "values": {
                "diffuse": "texture_textureAtlas_20955064_3_img",
                "emission": [
                    0,
                    0,
                    0,
                    1
                ]
            }
        },
        "textureAtlas_20955064_4_eff": {
            "name": "textureAtlas_20955064_4_mat",
            "technique": "technique1",
            "values": {
                "diffuse": "texture_textureAtlas_20955064_4_img",
                "emission": [
                    0,
                    0,
                    0,
                    1
                ]
            }
        },
        "textureAtlas_20955064_5_eff": {
            "name": "textureAtlas_20955064_5_mat",
            "technique": "technique1",
            "values": {
                "diffuse": "texture_textureAtlas_20955064_5_img",
                "emission": [
                    0,
                    0,
                    0,
                    1
                ]
            }
        },
        "textureAtlas_20955064_6_eff": {
            "name": "textureAtlas_20955064_6_mat",
            "technique": "technique1",
            "values": {
                "diffuse": "texture_textureAtlas_20955064_6_img",
                "emission": [
                    0,
                    0,
                    0,
                    1
                ]
            }
        },
        "textureAtlas_20955064_7_eff": {
            "name": "textureAtlas_20955064_7_mat",
            "technique": "technique1",
            "values": {
                "diffuse": "texture_textureAtlas_20955064_7_img",
                "emission": [
                    0,
                    0,
                    0,
                    1
                ]
            }
        }
    },
    "meshes": {
        "geometry0": {
            "name": "geometry0",
            "primitives": [
                {
                    "attributes": {
                        "NORMAL": "accessor_180",
                        "POSITION": "accessor_178",
                        "TEXCOORD_0": "accessor_182"
                    },
                    "indices": "accessor_152",
                    "material": "textureAtlas_20955064_1_eff",
                    "mode": 4
                },
                {
                    "attributes": {
                        "NORMAL": "accessor_180",
                        "POSITION": "accessor_178",
                        "TEXCOORD_0": "accessor_182"
                    },
                    "indices": "accessor_155",
                    "material": "textureAtlas_20955064_5_eff",
                    "mode": 4
                },
                {
                    "attributes": {
                        "NORMAL": "accessor_180",
                        "POSITION": "accessor_178",
                        "TEXCOORD_0": "accessor_182"
                    },
                    "indices": "accessor_158",
                    "material": "textureAtlas_20955064_6_eff",
                    "mode": 4
                },
                {
                    "attributes": {
                        "NORMAL": "accessor_180",
                        "POSITION": "accessor_178",
                        "TEXCOORD_0": "accessor_182"
                    },
                    "indices": "accessor_161",
                    "material": "textureAtlas_20955064_0_eff",
                    "mode": 4
                },
                {
                    "attributes": {
                        "NORMAL": "accessor_180",
                        "POSITION": "accessor_178",
                        "TEXCOORD_0": "accessor_182"
                    },
                    "indices": "accessor_164",
                    "material": "textureAtlas_20955064_7_eff",
                    "mode": 4
                },
                {
                    "attributes": {
                        "NORMAL": "accessor_180",
                        "POSITION": "accessor_178",
                        "TEXCOORD_0": "accessor_182"
                    },
                    "indices": "accessor_167",
                    "material": "textureAtlas_20955064_3_eff",
                    "mode": 4
                },
                {
                    "attributes": {
                        "NORMAL": "accessor_180",
                        "POSITION": "accessor_178",
                        "TEXCOORD_0": "accessor_182"
                    },
                    "indices": "accessor_170",
                    "material": "textureAtlas_20955064_2_eff",
                    "mode": 4
                },
                {
                    "attributes": {
                        "NORMAL": "accessor_180",
                        "POSITION": "accessor_178",
                        "TEXCOORD_0": "accessor_182"
                    },
                    "indices": "accessor_173",
                    "material": "textureAtlas_20955064_4_eff",
                    "mode": 4
                },
                {
                    "attributes": {
                        "NORMAL": "accessor_180",
                        "POSITION": "accessor_178"
                    },
                    "indices": "accessor_176",
                    "material": "default_ai_0.2_sh_0.2_tr_0.0_dc_r_0.8_g_0.8_b_0.8_sc_r_1.0_g_1.0_b_1.0_ec_r_0.0_g_0.0_b_0_eff",
                    "mode": 4
                }
            ]
        }
    },
    "nodes": {
        "node_0": {
            "children": [],
            "matrix": [
                1,
                0,
                0,
                0,
                0,
                1,
                0,
                0,
                0,
                0,
                1,
                0,
                0,
                0,
                0,
                1
            ],
            "meshes": [
                "geometry0"
            ],
            "name": ""
        },
        "node_1": {
            "children": [
                "node_0"
            ],
            "matrix": [
                1,
                0,
                0,
                0,
                0,
                0,
                -1,
                0,
                0,
                1,
                0,
                0,
                0,
                0,
                0,
                1
            ],
            "name": "Y_UP_Transform"
        }
    },
    "programs": {
        "program_0": {
            "attributes": [
                "a_normal",
                "a_position"
            ],
            "fragmentShader": "BLDG_0003000b002c70b60FS",
            "vertexShader": "BLDG_0003000b002c70b60VS"
        },
        "program_1": {
            "attributes": [
                "a_normal",
                "a_position",
                "a_texcoord0"
            ],
            "fragmentShader": "BLDG_0003000b002c70b61FS",
            "vertexShader": "BLDG_0003000b002c70b61VS"
        }
    },
    "samplers": {
        "sampler_0": {
            "magFilter": 9729,
            "minFilter": 9729,
            "wrapS": 10497,
            "wrapT": 10497
        }
    },
    "scene": "defaultScene",
    "scenes": {
        "defaultScene": {
            "nodes": [
                "node_1"
            ]
        }
    },
    "shaders": {
        "BLDG_0003000b002c70b60FS": {
            "type": 35632,
            "uri": "data:text/plain;base64,"
        },
        "BLDG_0003000b002c70b60VS": {
            "type": 35633,
            "uri": "data:text/plain;base64,"
        },
        "BLDG_0003000b002c70b61FS": {
            "type": 35632,
            "uri": "data:text/plain;base64,"
        },
        "BLDG_0003000b002c70b61VS": {
            "type": 35633,
            "uri": "data:text/plain;base64,"
        }
    },
    "skins": {},
    "techniques": {
        "technique0": {
            "attributes": {
                "a_normal": "normal",
                "a_position": "position"
            },
            "parameters": {
                "diffuse": {
                    "type": 35666
                },
                "emission": {
                    "type": 35666
                },
                "modelViewMatrix": {
                    "semantic": "MODELVIEW",
                    "type": 35676
                },
                "normal": {
                    "semantic": "NORMAL",
                    "type": 35665
                },
                "normalMatrix": {
                    "semantic": "MODELVIEWINVERSETRANSPOSE",
                    "type": 35675
                },
                "position": {
                    "semantic": "POSITION",
                    "type": 35665
                },
                "projectionMatrix": {
                    "semantic": "PROJECTION",
                    "type": 35676
                }
            },
            "program": "program_0",
            "states": {
                "enable": [
                    2929
                ]
            },
            "uniforms": {
                "u_diffuse": "diffuse",
                "u_emission": "emission",
                "u_modelViewMatrix": "modelViewMatrix",
                "u_normalMatrix": "normalMatrix",
                "u_projectionMatrix": "projectionMatrix"
            }
        },
        "technique1": {
            "attributes": {
                "a_normal": "normal",
                "a_position": "position",
                "a_texcoord0": "texcoord0"
            },
            "parameters": {
                "diffuse": {
                    "type": 35678
                },
                "emission": {
                    "type": 35666
                },
                "modelViewMatrix": {
                    "semantic": "MODELVIEW",
                    "type": 35676
                },
                "normal": {
                    "semantic": "NORMAL",
                    "type": 35665
                },
                "normalMatrix": {
                    "semantic": "MODELVIEWINVERSETRANSPOSE",
                    "type": 35675
                },
                "position": {
                    "semantic": "POSITION",
                    "type": 35665
                },
                "projectionMatrix": {
                    "semantic": "PROJECTION",
                    "type": 35676
                },
                "texcoord0": {
                    "semantic": "TEXCOORD_0",
                    "type": 35664
                }
            },
            "program": "program_1",
            "states": {
                "enable": [
                    2929
                ]
            },
            "uniforms": {
                "u_diffuse": "diffuse",
                "u_emission": "emission",
                "u_modelViewMatrix": "modelViewMatrix",
                "u_normalMatrix": "normalMatrix",
                "u_projectionMatrix": "projectionMatrix"
            }
        }
    },
    "textures": {
        "texture_textureAtlas_20955064_0_img": {
            "format": 6408,
            "internalFormat": 6408,
            "sampler": "sampler_0",
            "source": "textureAtlas_20955064_0_img",
            "target": 3553,
            "type": 5121
        },
        "texture_textureAtlas_20955064_1_img": {
            "format": 6408,
            "internalFormat": 6408,
            "sampler": "sampler_0",
            "source": "textureAtlas_20955064_1_img",
            "target": 3553,
            "type": 5121
        },
        "texture_textureAtlas_20955064_2_img": {
            "format": 6408,
            "internalFormat": 6408,
            "sampler": "sampler_0",
            "source": "textureAtlas_20955064_2_img",
            "target": 3553,
            "type": 5121
        },
        "texture_textureAtlas_20955064_3_img": {
            "format": 6408,
            "internalFormat": 6408,
            "sampler": "sampler_0",
            "source": "textureAtlas_20955064_3_img",
            "target": 3553,
            "type": 5121
        },
        "texture_textureAtlas_20955064_4_img": {
            "format": 6408,
            "internalFormat": 6408,
            "sampler": "sampler_0",
            "source": "textureAtlas_20955064_4_img",
            "target": 3553,
            "type": 5121
        },
        "texture_textureAtlas_20955064_5_img": {
            "format": 6408,
            "internalFormat": 6408,
            "sampler": "sampler_0",
            "source": "textureAtlas_20955064_5_img",
            "target": 3553,
            "type": 5121
        },
        "texture_textureAtlas_20955064_6_img": {
            "format": 6408,
            "internalFormat": 6408,
            "sampler": "sampler_0",
            "source": "textureAtlas_20955064_6_img",
            "target": 3553,
            "type": 5121
        },
        "texture_textureAtlas_20955064_7_img": {
            "format": 6408,
            "internalFormat": 6408,
            "sampler": "sampler_0",
            "source": "textureAtlas_20955064_7_img",
            "target": 3553,
            "type": 5121
        }
    }
}