{
    "accessors": {
        "accessor_21": {
            "bufferView": "bufferView_29",
            "byteOffset": 0,
            "byteStride": 0,
            "componentType": 5123,
            "count": 33,
            "type": "SCALAR"
        },
        "accessor_23": {
            "bufferView": "bufferView_30",
            "byteOffset": 0,
            "byteStride": 12,
            "componentType": 5126,
            "count": 33,
            "max": [
                0.40625,
                4,
                2.39009
            ],
            "min": [
                -5.59375,
                -3,
                0
            ],
            "type": "VEC3"
        },
        "accessor_25": {
            "bufferView": "bufferView_30",
            "byteOffset": 396,
            "byteStride": 12,
            "componentType": 5126,
            "count": 33,
            "max": [
                0.993331,
                0.995331,
                1
            ],
            "min": [
                -0.990256,
                -0.981708,
                0
            ],
            "type": "VEC3"
        },
        "accessor_27": {
            "bufferView": "bufferView_30",
            "byteOffset": 792,
            "byteStride": 8,
            "componentType": 5126,
            "count": 33,
            "max": [
                0.639913,
                0.964676
            ],
            "min": [
                0,
                0
            ],
            "type": "VEC2"
        }
    },
    "animations": {},
    "asset": {
        "generator": "collada2gltf@cf6371beb0bdc18ba603378d5e40c966da53d385",
        "premultipliedAlpha": true,
        "profile": {
            "api": "WebGL",
            "version": "1.0.2"
        },
        "version": "1.0"
    },
    "bufferViews": {
        "bufferView_29": {
            "buffer": "UUID_e085a7ac-a231-4d65-8a48-dfadb68b3366",
            "byteLength": 68,
            "byteOffset": 0,
            "target": 34963
        },
        "bufferView_30": {
            "buffer": "UUID_e085a7ac-a231-4d65-8a48-dfadb68b3366",
            "byteLength": 1056,
            "byteOffset": 68,
            "target": 34962
        }
    },
    "buffers": {
        "UUID_e085a7ac-a231-4d65-8a48-dfadb68b3366": {
            "byteLength": 1124,
            "type": "arraybuffer",
            "uri": "data:application/octet-stream;base64,"
        }
    },
    "images": {
        "textureAtlas_13310044_0_img": {
            "name": "textureAtlas_13310044_0_img",
            "uri": "data:image/jpeg;base64,"
        }
    },
    "materials": {
        "textureAtlas_13310044_0_eff": {
            "name": "textureAtlas_13310044_0_mat",
            "technique": "technique0",
            "values": {
                "diffuse": "texture_textureAtlas_13310044_0_img",
                "emission": [
                    0,
                    0,
                    0,
                    1
                ]
            }
        }
    },
    "meshes": {
        "geometry0": {
            "name": "geometry0",
            "primitives": [
                {
                    "attributes": {
                        "NORMAL": "accessor_25",
                        "POSITION": "accessor_23",
                        "TEXCOORD_0": "accessor_27"
                    },
                    "indices": "accessor_21",
                    "material": "textureAtlas_13310044_0_eff",
                    "mode": 4
                }
            ]
        }
    },
    "nodes": {
        "node_0": {
            "children": [],
            "matrix": [
                1,
                0,
                0,
                0,
                0,
                1,
                0,
                0,
                0,
                0,
                1,
                0,
                0,
                0,
                0,
                1
            ],
            "meshes": [
                "geometry0"
            ],
            "name": ""
        },
        "node_1": {
            "children": [
                "node_0"
            ],
            "matrix": [
                1,
                0,
                0,
                0,
                0,
                0,
                -1,
                0,
                0,
                1,
                0,
                0,
                0,
                0,
                0,
                1
            ],
            "name": "Y_UP_Transform"
        }
    },
    "programs": {
        "program_0": {
            "attributes": [
                "a_normal",
                "a_position",
                "a_texcoord0"
            ],
            "fragmentShader": "UUID_e085a7ac-a231-4d65-8a48-dfadb68b33660FS",
            "vertexShader": "UUID_e085a7ac-a231-4d65-8a48-dfadb68b33660VS"
        }
    },
    "samplers": {
        "sampler_0": {
            "magFilter": 9729,
            "minFilter": 9729,
            "wrapS": 10497,
            "wrapT": 10497
        }
    },
    "scene": "defaultScene",
    "scenes": {
        "defaultScene": {
            "nodes": [
                "node_1"
            ]
        }
    },
    "shaders": {
        "UUID_e085a7ac-a231-4d65-8a48-dfadb68b33660FS": {
            "type": 35632,
            "uri": "data:text/plain;base64,"
        },
        "UUID_e085a7ac-a231-4d65-8a48-dfadb68b33660VS": {
            "type": 35633,
            "uri": "data:text/plain;base64,"
        }
    },
    "skins": {},
    "techniques": {
        "technique0": {
            "attributes": {
                "a_normal": "normal",
                "a_position": "position",
                "a_texcoord0": "texcoord0"
            },
            "parameters": {
                "diffuse": {
                    "type": 35678
                },
                "emission": {
                    "type": 35666
                },
                "modelViewMatrix": {
                    "semantic": "MODELVIEW",
                    "type": 35676
                },
                "normal": {
                    "semantic": "NORMAL",
                    "type": 35665
                },
                "normalMatrix": {
                    "semantic": "MODELVIEWINVERSETRANSPOSE",
                    "type": 35675
                },
                "position": {
                    "semantic": "POSITION",
                    "type": 35665
                },
                "projectionMatrix": {
                    "semantic": "PROJECTION",
                    "type": 35676
                },
                "texcoord0": {
                    "semantic": "TEXCOORD_0",
                    "type": 35664
                }
            },
            "program": "program_0",
            "states": {
                "enable": [
                    2929
                ]
            },
            "uniforms": {
                "u_diffuse": "diffuse",
                "u_emission": "emission",
                "u_modelViewMatrix": "modelViewMatrix",
                "u_normalMatrix": "normalMatrix",
                "u_projectionMatrix": "projectionMatrix"
            }
        }
    },
    "textures": {
        "texture_textureAtlas_13310044_0_img": {
            "format": 6408,
            "internalFormat": 6408,
            "sampler": "sampler_0",
            "source": "textureAtlas_13310044_0_img",
            "target": 3553,
            "type": 5121
        }
    }
}