{
    "accessors": {
        "accessor_55": {
            "bufferView": "bufferView_69",
            "byteOffset": 0,
            "byteStride": 0,
            "componentType": 5123,
            "count": 3,
            "type": "SCALAR"
        },
        "accessor_58": {
            "bufferView": "bufferView_69",
            "byteOffset": 6,
            "byteStride": 0,
            "componentType": 5123,
            "count": 3129,
            "type": "SCALAR"
        },
        "accessor_61": {
            "bufferView": "bufferView_69",
            "byteOffset": 6264,
            "byteStride": 0,
            "componentType": 5123,
            "count": 1713,
            "type": "SCALAR"
        },
        "accessor_63": {
            "bufferView": "bufferView_70",
            "byteOffset": 0,
            "byteStride": 12,
            "componentType": 5126,
            "count": 4800,
            "max": [
                48.0313,
                36,
                25.6608
            ],
            "min": [
                -7.1875,
                -30.5,
                0
            ],
            "type": "VEC3"
        },
        "accessor_65": {
            "bufferView": "bufferView_70",
            "byteOffset": 57600,
            "byteStride": 12,
            "componentType": 5126,
            "count": 4800,
            "max": [
                1,
                1,
                1
            ],
            "min": [
                -0.998053,
                -1,
                -1
            ],
            "type": "VEC3"
        },
        "accessor_67": {
            "bufferView": "bufferView_70",
            "byteOffset": 115200,
            "byteStride": 8,
            "componentType": 5126,
            "count": 4800,
            "max": [
                0.999989,
                1
            ],
            "min": [
                0,
                2.14577e-005
            ],
            "type": "VEC2"
        }
    },
    "animations": {},
    "asset": {
        "generator": "collada2gltf@cf6371beb0bdc18ba603378d5e40c966da53d385",
        "premultipliedAlpha": true,
        "profile": {
            "api": "WebGL",
            "version": "1.0.2"
        },
        "version": "1.0"
    },
    "bufferViews": {
        "bufferView_69": {
            "buffer": "UUID_c339364a-2a63-4625-b61d-1e834a80dbb9",
            "byteLength": 9692,
            "byteOffset": 0,
            "target": 34963
        },
        "bufferView_70": {
            "buffer": "UUID_c339364a-2a63-4625-b61d-1e834a80dbb9",
            "byteLength": 153600,
            "byteOffset": 9692,
            "target": 34962
        }
    },
    "buffers": {
        "UUID_c339364a-2a63-4625-b61d-1e834a80dbb9": {
            "byteLength": 163292,
            "type": "arraybuffer",
            "uri": "data:application/octet-stream;base64,"
        }
    },
    "images": {
        "textureAtlas_25323659_0_img": {
            "name": "textureAtlas_25323659_0_img",
            "uri": "data:image/jpeg;base64,"
        },
        "textureAtlas_25323659_1_img": {
            "name": "textureAtlas_25323659_1_img",
            "uri": "data:image/jpeg;base64,"
        },
        "textureAtlas_25323659_2_img": {
            "name": "textureAtlas_25323659_2_img",
            "uri": "data:image/jpeg;base64,"
        }
    },
    "materials": {
        "textureAtlas_25323659_0_eff": {
            "name": "textureAtlas_25323659_0_mat",
            "technique": "technique0",
            "values": {
                "diffuse": "texture_textureAtlas_25323659_0_img",
                "emission": [
                    0,
                    0,
                    0,
                    1
                ]
            }
        },
        "textureAtlas_25323659_1_eff": {
            "name": "textureAtlas_25323659_1_mat",
            "technique": "technique0",
            "values": {
                "diffuse": "texture_textureAtlas_25323659_1_img",
                "emission": [
                    0,
                    0,
                    0,
                    1
                ]
            }
        },
        "textureAtlas_25323659_2_eff": {
            "name": "textureAtlas_25323659_2_mat",
            "technique": "technique0",
            "values": {
                "diffuse": "texture_textureAtlas_25323659_2_img",
                "emission": [
                    0,
                    0,
                    0,
                    1
                ]
            }
        }
    },
    "meshes": {
        "geometry0": {
            "name": "geometry0",
            "primitives": [
                {
                    "attributes": {
                        "NORMAL": "accessor_65",
                        "POSITION": "accessor_63",
                        "TEXCOORD_0": "accessor_67"
                    },
                    "indices": "accessor_55",
                    "material": "textureAtlas_25323659_0_eff",
                    "mode": 4
                },
                {
                    "attributes": {
                        "NORMAL": "accessor_65",
                        "POSITION": "accessor_63",
                        "TEXCOORD_0": "accessor_67"
                    },
                    "indices": "accessor_58",
                    "material": "textureAtlas_25323659_2_eff",
                    "mode": 4
                },
                {
                    "attributes": {
                        "NORMAL": "accessor_65",
                        "POSITION": "accessor_63",
                        "TEXCOORD_0": "accessor_67"
                    },
                    "indices": "accessor_61",
                    "material": "textureAtlas_25323659_1_eff",
                    "mode": 4
                }
            ]
        }
    },
    "nodes": {
        "node_0": {
            "children": [],
            "matrix": [
                1,
                0,
                0,
                0,
                0,
                1,
                0,
                0,
                0,
                0,
                1,
                0,
                0,
                0,
                0,
                1
            ],
            "meshes": [
                "geometry0"
            ],
            "name": ""
        },
        "node_1": {
            "children": [
                "node_0"
            ],
            "matrix": [
                1,
                0,
                0,
                0,
                0,
                0,
                -1,
                0,
                0,
                1,
                0,
                0,
                0,
                0,
                0,
                1
            ],
            "name": "Y_UP_Transform"
        }
    },
    "programs": {
        "program_0": {
            "attributes": [
                "a_normal",
                "a_position",
                "a_texcoord0"
            ],
            "fragmentShader": "UUID_c339364a-2a63-4625-b61d-1e834a80dbb90FS",
            "vertexShader": "UUID_c339364a-2a63-4625-b61d-1e834a80dbb90VS"
        }
    },
    "samplers": {
        "sampler_0": {
            "magFilter": 9729,
            "minFilter": 9729,
            "wrapS": 10497,
            "wrapT": 10497
        }
    },
    "scene": "defaultScene",
    "scenes": {
        "defaultScene": {
            "nodes": [
                "node_1"
            ]
        }
    },
    "shaders": {
        "UUID_c339364a-2a63-4625-b61d-1e834a80dbb90FS": {
            "type": 35632,
            "uri": "data:text/plain;base64,"
        },
        "UUID_c339364a-2a63-4625-b61d-1e834a80dbb90VS": {
            "type": 35633,
            "uri": "data:text/plain;base64,"
        }
    },
    "skins": {},
    "techniques": {
        "technique0": {
            "attributes": {
                "a_normal": "normal",
                "a_position": "position",
                "a_texcoord0": "texcoord0"
            },
            "parameters": {
                "diffuse": {
                    "type": 35678
                },
                "emission": {
                    "type": 35666
                },
                "modelViewMatrix": {
                    "semantic": "MODELVIEW",
                    "type": 35676
                },
                "normal": {
                    "semantic": "NORMAL",
                    "type": 35665
                },
                "normalMatrix": {
                    "semantic": "MODELVIEWINVERSETRANSPOSE",
                    "type": 35675
                },
                "position": {
                    "semantic": "POSITION",
                    "type": 35665
                },
                "projectionMatrix": {
                    "semantic": "PROJECTION",
                    "type": 35676
                },
                "texcoord0": {
                    "semantic": "TEXCOORD_0",
                    "type": 35664
                }
            },
            "program": "program_0",
            "states": {
                "enable": [
                    2929
                ]
            },
            "uniforms": {
                "u_diffuse": "diffuse",
                "u_emission": "emission",
                "u_modelViewMatrix": "modelViewMatrix",
                "u_normalMatrix": "normalMatrix",
                "u_projectionMatrix": "projectionMatrix"
            }
        }
    },
    "textures": {
        "texture_textureAtlas_25323659_0_img": {
            "format": 6408,
            "internalFormat": 6408,
            "sampler": "sampler_0",
            "source": "textureAtlas_25323659_0_img",
            "target": 3553,
            "type": 5121
        },
        "texture_textureAtlas_25323659_1_img": {
            "format": 6408,
            "internalFormat": 6408,
            "sampler": "sampler_0",
            "source": "textureAtlas_25323659_1_img",
            "target": 3553,
            "type": 5121
        },
        "texture_textureAtlas_25323659_2_img": {
            "format": 6408,
            "internalFormat": 6408,
            "sampler": "sampler_0",
            "source": "textureAtlas_25323659_2_img",
            "target": 3553,
            "type": 5121
        }
    }
}